<svg width="238" height="531" viewBox="0 0 238 531" fill="none" xmlns="http://www.w3.org/2000/svg">
<g clip-path="url(#clip0_1996_7099)">
<path opacity="0.3" d="M544.116 80.5884L424.069 -69.2536C423.378 -70.1156 422.12 -70.2546 421.258 -69.564L1.6945 266.573C0.83248 267.264 0.693514 268.523 1.38414 269.385L121.432 419.227C122.122 420.089 123.381 420.227 124.243 419.537L543.806 83.3997C544.668 82.7091 544.807 81.4504 544.116 80.5884Z" fill="url(#paint0_linear_1996_7099)" fill-opacity="0.3"/>
<path opacity="0.3" d="M462.679 189.958L427.819 146.446C427.128 145.584 425.87 145.445 425.008 146.135L5.4445 482.272C4.58248 482.963 4.44351 484.222 5.13414 485.084L39.9944 528.596C40.685 529.458 41.9437 529.597 42.8058 528.906L462.369 192.769C463.231 192.079 463.37 190.82 462.679 189.958Z" fill="url(#paint1_linear_1996_7099)" fill-opacity="0.3"/>
</g>
<defs>
<linearGradient id="paint0_linear_1996_7099" x1="622.713" y1="-110.088" x2="67.6432" y2="334.611" gradientUnits="userSpaceOnUse">
<stop stop-color="#F7F8FF"/>
<stop offset="1" stop-color="#F7F8FF" stop-opacity="0"/>
</linearGradient>
<linearGradient id="paint1_linear_1996_7099" x1="585.463" y1="54.4351" x2="30.3937" y2="499.135" gradientUnits="userSpaceOnUse">
<stop stop-color="#F7F8FF"/>
<stop offset="1" stop-color="#F7F8FF" stop-opacity="0"/>
</linearGradient>
<clipPath id="clip0_1996_7099">
<rect width="238" height="531" fill="white"/>
</clipPath>
</defs>
</svg>
