<svg width="450" height="556" viewBox="0 0 450 556" fill="none" xmlns="http://www.w3.org/2000/svg">
<g clip-path="url(#clip0_743_22374)">
<path d="M277 288C401.264 288 502 187.264 502 63C502 -61.2641 401.264 -162 277 -162C152.736 -162 52 -61.2641 52 63C52 187.264 152.736 288 277 288Z" fill="url(#paint0_linear_743_22374)" fill-opacity="0.15"/>
<path d="M18 200C27.9411 200 36 191.941 36 182C36 172.059 27.9411 164 18 164C8.05887 164 0 172.059 0 182C0 191.941 8.05887 200 18 200Z" fill="url(#paint1_radial_743_22374)" fill-opacity="0.15"/>
<path d="M77 322C95.7777 322 111 306.778 111 288C111 269.222 95.7777 254 77 254C58.2223 254 43 269.222 43 288C43 306.778 58.2223 322 77 322Z" fill="url(#paint2_radial_743_22374)" fill-opacity="0.15"/>
<path d="M435.524 445.318C514.196 384.546 528.707 271.503 467.934 192.831C407.162 114.159 294.12 99.6485 215.448 160.421C136.775 221.193 122.265 334.235 183.037 412.908C243.81 491.58 356.852 506.09 435.524 445.318Z" fill="url(#paint3_linear_743_22374)" fill-opacity="0.15"/>
<path opacity="0.8" d="M63.9843 259.636C33.1199 326.207 62.0656 405.194 128.636 436.058C195.207 466.923 274.194 437.977 305.058 371.406C335.923 304.835 306.977 225.849 240.406 194.984C173.836 164.12 94.8487 193.066 63.9843 259.636Z" stroke="url(#paint4_linear_743_22374)" stroke-opacity="0.15"/>
<path opacity="0.8" d="M445.75 445.452C531.604 395.884 561.019 286.104 511.452 200.25C461.884 114.397 352.104 84.9813 266.25 134.549C180.397 184.116 150.981 293.897 200.549 379.75C250.116 465.604 359.897 495.019 445.75 445.452Z" stroke="url(#paint5_linear_743_22374)" stroke-opacity="0.15"/>
<path opacity="0.8" d="M94.6326 211.165C44.1017 264.752 46.5787 349.155 100.165 399.686C153.752 450.217 238.155 447.74 288.686 394.154C339.217 340.567 336.74 256.164 283.154 205.633C229.567 155.102 145.164 157.579 94.6326 211.165Z" fill="url(#paint6_linear_743_22374)" fill-opacity="0.15"/>
</g>
<defs>
<linearGradient id="paint0_linear_743_22374" x1="-54.5003" y1="-178" x2="222" y2="288" gradientUnits="userSpaceOnUse">
<stop stop-color="#8F9BB3"/>
<stop offset="1" stop-color="#8F9BB3" stop-opacity="0"/>
</linearGradient>
<radialGradient id="paint1_radial_743_22374" cx="0" cy="0" r="1" gradientUnits="userSpaceOnUse" gradientTransform="translate(18 182) rotate(90) scale(18)">
<stop offset="0.145833" stop-color="#8F9BB3" stop-opacity="0"/>
<stop offset="1" stop-color="#8F9BB3" stop-opacity="0.08"/>
</radialGradient>
<radialGradient id="paint2_radial_743_22374" cx="0" cy="0" r="1" gradientUnits="userSpaceOnUse" gradientTransform="translate(77 288) rotate(90) scale(34)">
<stop offset="0.145833" stop-color="#8F9BB3" stop-opacity="0"/>
<stop offset="1" stop-color="#8F9BB3" stop-opacity="0.08"/>
</radialGradient>
<linearGradient id="paint3_linear_743_22374" x1="21.7744" y1="71.1745" x2="328.79" y2="361.667" gradientUnits="userSpaceOnUse">
<stop stop-color="#8F9BB3"/>
<stop offset="1" stop-color="#8F9BB3" stop-opacity="0"/>
</linearGradient>
<linearGradient id="paint4_linear_743_22374" x1="305.512" y1="371.617" x2="63.5316" y2="259.426" gradientUnits="userSpaceOnUse">
<stop stop-color="#8F9BB3"/>
<stop offset="1" stop-color="#8F9BB3" stop-opacity="0"/>
</linearGradient>
<linearGradient id="paint5_linear_743_22374" x1="266" y1="134.116" x2="446" y2="445.885" gradientUnits="userSpaceOnUse">
<stop stop-color="#8F9BB3"/>
<stop offset="1" stop-color="#8F9BB3" stop-opacity="0"/>
</linearGradient>
<linearGradient id="paint6_linear_743_22374" x1="440.752" y1="437.026" x2="182.431" y2="260.015" gradientUnits="userSpaceOnUse">
<stop stop-color="#8F9BB3"/>
<stop offset="1" stop-color="#8F9BB3" stop-opacity="0"/>
</linearGradient>
<clipPath id="clip0_743_22374">
<rect width="450" height="556" fill="white"/>
</clipPath>
</defs>
</svg>
