<svg width="364" height="201" viewBox="0 0 364 201" fill="none" xmlns="http://www.w3.org/2000/svg">
<g clip-path="url(#clip0_743_22396)">
<path d="M5.88965 72.3301C33.6603 66.4796 101.397 64.9084 150.178 105.427C211.155 156.076 229.59 162.093 264.333 166.607C299.076 171.12 337.718 183.657 362.889 212.24" stroke="url(#paint0_linear_743_22396)" stroke-opacity="0.3"/>
<path d="M-22.1104 72.3301C5.66024 66.4796 73.3968 64.9084 122.178 105.427C183.155 156.076 201.59 162.093 236.333 166.607C271.076 171.12 309.718 183.657 334.889 212.24" stroke="url(#paint1_linear_743_22396)" stroke-opacity="0.3"/>
<path d="M-53.1104 72.3301C-25.3398 66.4796 42.3969 64.9084 91.1786 105.427C152.155 156.076 170.59 162.093 205.333 166.607C240.076 171.12 278.718 183.657 303.889 212.24" stroke="url(#paint2_linear_743_22396)" stroke-opacity="0.3"/>
<path d="M-98.1621 65.0885C-68.1419 60.0597 4.73333 60.4878 56.0731 102.431C120.248 154.86 139.905 161.419 177.137 166.956C214.37 172.493 255.575 186.165 281.856 215.481" stroke="url(#paint3_linear_743_22396)" stroke-opacity="0.3"/>
<path opacity="0.8" d="M226.045 108.869C252.755 102.495 269.241 75.6756 262.867 48.9656C256.494 22.2557 229.674 5.76972 202.964 12.1433C176.254 18.5168 159.768 45.3363 166.142 72.0463C172.515 98.7562 199.335 115.242 226.045 108.869Z" stroke="url(#paint4_linear_743_22396)" stroke-opacity="0.15"/>
<path d="M220 106C243.748 106 263 86.7482 263 63C263 39.2518 243.748 20 220 20C196.252 20 177 39.2518 177 63C177 86.7482 196.252 106 220 106Z" fill="url(#paint5_radial_743_22396)"/>
</g>
<defs>
<linearGradient id="paint0_linear_743_22396" x1="184.389" y1="69.2403" x2="184.389" y2="212.24" gradientUnits="userSpaceOnUse">
<stop stop-color="#8F9BB3" stop-opacity="0"/>
<stop offset="1" stop-color="#8F9BB3"/>
</linearGradient>
<linearGradient id="paint1_linear_743_22396" x1="156.389" y1="69.2403" x2="156.389" y2="212.24" gradientUnits="userSpaceOnUse">
<stop stop-color="#8F9BB3" stop-opacity="0"/>
<stop offset="1" stop-color="#8F9BB3"/>
</linearGradient>
<linearGradient id="paint2_linear_743_22396" x1="125.389" y1="69.2403" x2="125.389" y2="212.24" gradientUnits="userSpaceOnUse">
<stop stop-color="#8F9BB3" stop-opacity="0"/>
<stop offset="1" stop-color="#8F9BB3"/>
</linearGradient>
<linearGradient id="paint3_linear_743_22396" x1="93.8504" y1="67.267" x2="89.9275" y2="210.214" gradientUnits="userSpaceOnUse">
<stop stop-color="#8F9BB3" stop-opacity="0"/>
<stop offset="1" stop-color="#8F9BB3"/>
</linearGradient>
<linearGradient id="paint4_linear_743_22396" x1="202.848" y1="11.6569" x2="221.803" y2="98.9377" gradientUnits="userSpaceOnUse">
<stop stop-color="#8F9BB3"/>
<stop offset="1" stop-color="#8F9BB3" stop-opacity="0"/>
</linearGradient>
<radialGradient id="paint5_radial_743_22396" cx="0" cy="0" r="1" gradientUnits="userSpaceOnUse" gradientTransform="translate(220 63) rotate(90) scale(43)">
<stop offset="0.145833" stop-color="#8F9BB3" stop-opacity="0"/>
<stop offset="1" stop-color="#8F9BB3" stop-opacity="0.08"/>
</radialGradient>
<clipPath id="clip0_743_22396">
<rect width="364" height="201" fill="white"/>
</clipPath>
</defs>
</svg>
