<svg width="118" height="62" viewBox="0 0 118 62" fill="none" xmlns="http://www.w3.org/2000/svg">
<path d="M54.0646 39.9714C54.9849 39.9714 55.8259 39.3473 56.0248 38.5847L58.1994 30.2425C58.2502 30.0477 58.3677 29.8554 58.5507 29.7069L60.9444 27.7648L60.7327 27.5091C60.5902 27.2392 60.5358 27.1294 60.5356 26.8088C60.8664 26.8025 60.8263 26.7467 61.1937 26.7467V26.6229C60.7095 26.5134 60.1803 25.714 60.17 25.3221C60.4812 25.3439 60.5346 25.4518 60.7699 25.5572C60.871 25.6026 60.8936 25.5985 61.014 25.6601C61.143 25.7261 61.0845 25.7057 61.187 25.7614C61.4301 25.8936 61.6123 25.9814 61.9249 26.0036C61.8481 25.8237 61.5928 25.7249 61.3917 25.5882L60.3592 24.728C59.7019 24.1414 59.8491 23.9727 59.9116 23.1926C59.9243 23.0362 59.9381 22.9956 60.0237 22.8442C60.5701 22.8675 60.9723 23.4503 61.3278 23.7218L63.6176 25.4988C64.5254 26.1218 65.3949 26.7794 66.4083 27.2851C66.5412 27.3513 66.5765 27.3696 66.6829 27.4243L67.4783 27.8035C67.4918 27.8104 67.51 27.82 67.5235 27.827C67.5422 27.8366 67.5964 27.8638 67.615 27.8736L67.7058 27.9203C67.7193 27.9274 67.7369 27.9376 67.7506 27.9444L68.2572 28.1347C68.6028 28.2784 68.918 28.5279 69.2745 28.3267C69.2873 28.3194 69.3031 28.3071 69.3153 28.2994L69.8285 27.9907C70.9702 27.4553 72.4549 28.8041 72.4549 29.2866C72.455 29.8253 71.3744 28.8146 70.7525 29.8888L69.7932 31.4298C69.4667 31.8871 68.9793 32.1122 68.4018 32.2955C67.7893 32.4896 67.6256 32.5396 67.4067 32.5795L67.8737 33.1647C68.1197 33.4743 68.5483 33.6588 69.0401 33.6588H77.7098C78.2789 33.6588 78.7004 33.1112 78.4194 32.7481L69.3211 21.3449C69.2367 21.2437 69.2719 21.0889 69.3983 20.9878L83.4287 9.53101C83.8713 9.16793 83.6815 8.61434 83.1124 8.61434H74.4358C73.951 8.61434 73.4452 8.79298 73.0588 9.10842L61.1432 18.8393C60.5601 19.1904 60.6724 18.6071 60.6724 18.6071L62.2248 11.2257C62.3862 10.458 61.775 9.83899 60.8548 9.83899H55.2904C54.3714 9.83899 53.4965 10.4602 53.3232 11.2257L48.7115 31.5877H46.9929C46.2799 31.5877 45.8089 31.1133 45.9366 30.517C47.4488 23.4596 49.067 16.4182 50.6529 9.36828C50.7851 8.7804 51.4563 8.29761 52.1605 8.29761H70.3965C71.5791 8.29761 72.7076 7.50222 72.9243 6.51572L73.9353 1.78189C74.1429 0.795391 73.3575 0 72.1659 0H51.2125C45.6697 0 40.4294 3.74016 39.3862 8.34347C37.6272 16.1059 35.8509 23.8618 34.1646 31.6107C33.1581 36.2352 36.8728 40 42.4339 40C46.3425 40 50.1673 39.9714 54.0646 39.9714L54.0646 39.9714Z" fill="#6EE7B7"/>
<path d="M7.7 55.578L9.24 56.558C8.316 57.65 6.944 58.35 5.502 58.35C2.702 58.35 0.532 55.984 0.532 53.198C0.532 50.482 2.674 48.074 5.474 48.074C6.888 48.074 8.148 48.662 9.1 49.698L7.602 50.748C7.07 50.132 6.37 49.824 5.488 49.824C3.682 49.824 2.366 51.434 2.366 53.198C2.366 54.948 3.64 56.586 5.488 56.586C6.384 56.586 7.126 56.25 7.7 55.578ZM4.326 53.212C4.326 52.624 4.816 52.134 5.418 52.134C6.006 52.134 6.496 52.624 6.496 53.212C6.496 53.814 6.006 54.304 5.418 54.304C4.816 54.304 4.326 53.814 4.326 53.212ZM16.249 54.444L18.643 58.21H16.557L14.303 54.64H12.553V58.21H10.803V48.2H15.367C17.145 48.2 18.573 49.642 18.573 51.434C18.573 52.428 18.111 53.436 17.257 53.982C16.991 54.178 16.697 54.318 16.375 54.416L16.249 54.444ZM12.553 49.95V52.89H15.367C16.179 52.89 16.823 52.246 16.823 51.434C16.823 50.622 16.193 49.95 15.367 49.95H12.553ZM24.8178 48.116C27.5758 48.116 29.7318 50.468 29.7318 53.212C29.7318 55.942 27.6318 58.308 24.8178 58.308C22.0458 58.308 19.9178 55.97 19.9178 53.212C19.9178 50.524 22.0318 48.116 24.8178 48.116ZM24.8178 56.558C26.5958 56.558 27.9118 54.948 27.9118 53.212C27.9118 51.476 26.6378 49.88 24.8178 49.88C23.0118 49.88 21.7378 51.448 21.7378 53.212C21.7378 54.92 23.0118 56.558 24.8178 56.558ZM23.7258 53.212C23.7258 52.624 24.2158 52.134 24.8178 52.134C25.4058 52.134 25.8958 52.624 25.8958 53.212C25.8958 53.814 25.4058 54.304 24.8178 54.304C24.2158 54.304 23.7258 53.814 23.7258 53.212ZM40.6482 48.2H42.5242L39.7522 58.21H37.9742L36.5462 51.882L35.1182 58.21H33.3262L30.5542 48.2H32.4302L34.2642 55.522L35.9722 48.144H37.1202L38.8142 55.522L40.6482 48.2ZM47.322 52.134C49.1 52.4 51.13 53.114 51.13 55.242C51.13 57.328 49.282 58.308 47.364 58.308C45.81 58.308 44.326 57.734 43.5 56.348L44.942 55.34C45.446 56.138 46.398 56.558 47.322 56.558C48.134 56.558 49.366 56.306 49.366 55.298C49.366 54.206 47.938 53.94 47.084 53.87C45.586 53.59 43.766 52.792 43.766 51.014C43.766 49.138 45.74 48.102 47.42 48.102C48.568 48.102 50.206 48.606 50.85 49.572L49.45 50.636C49.394 50.566 49.282 50.482 49.156 50.384C49.016 50.3 48.862 50.216 48.68 50.132C48.274 49.978 47.854 49.852 47.406 49.852C47.028 49.852 46.524 49.95 46.188 50.132C45.852 50.272 45.516 50.538 45.516 50.93C45.516 51.728 46.706 52.05 47.322 52.134ZM60.7929 48.186L56.0749 52.904L60.7649 58.21H58.5249L54.6749 53.884V58.21H52.9249V48.186H54.6749V51.966L58.3709 48.186H60.7929ZM65.764 48.116C68.522 48.116 70.678 50.468 70.678 53.212C70.678 55.942 68.578 58.308 65.764 58.308C62.992 58.308 60.864 55.97 60.864 53.212C60.864 50.524 62.978 48.116 65.764 48.116ZM65.764 56.558C67.542 56.558 68.858 54.948 68.858 53.212C68.858 51.476 67.584 49.88 65.764 49.88C63.958 49.88 62.684 51.448 62.684 53.212C62.684 54.92 63.958 56.558 65.764 56.558ZM64.672 53.212C64.672 52.624 65.162 52.134 65.764 52.134C66.352 52.134 66.842 52.624 66.842 53.212C66.842 53.814 66.352 54.304 65.764 54.304C65.162 54.304 64.672 53.814 64.672 53.212ZM78.5095 48.2H80.2595V58.21H78.8035L74.2115 51.546V58.21H72.4615V48.2H73.9595L78.5095 54.836V48.2ZM88.5649 48.2H90.3149V58.21H88.8589L84.2669 51.546V58.21H82.5169V48.2H84.0149L88.5649 54.836V48.2ZM98.7183 49.95H94.3223V52.26H98.1023V54.01H94.3223V56.474H98.6623V58.224H92.5723V48.2H98.7183V49.95ZM107.324 55.578L108.864 56.558C107.94 57.65 106.568 58.35 105.126 58.35C102.326 58.35 100.156 55.984 100.156 53.198C100.156 50.482 102.298 48.074 105.098 48.074C106.512 48.074 107.772 48.662 108.724 49.698L107.226 50.748C106.694 50.132 105.994 49.824 105.112 49.824C103.306 49.824 101.99 51.434 101.99 53.198C101.99 54.948 103.264 56.586 105.112 56.586C106.008 56.586 106.75 56.25 107.324 55.578ZM103.95 53.212C103.95 52.624 104.44 52.134 105.042 52.134C105.63 52.134 106.12 52.624 106.12 53.212C106.12 53.814 105.63 54.304 105.042 54.304C104.44 54.304 103.95 53.814 103.95 53.212ZM109.629 48.2H117.049V49.95H114.193V58.21H112.429V49.95H109.629V48.2Z" fill="#71CCA8"/>
</svg>
